<?xml version="1.0" encoding="UTF-8" standalone="no"?>
<!-- Created with Inkscape (http://www.inkscape.org/) -->

<svg
   xmlns:dc="http://purl.org/dc/elements/1.1/"
   xmlns:cc="http://creativecommons.org/ns#"
   xmlns:rdf="http://www.w3.org/1999/02/22-rdf-syntax-ns#"
   xmlns:svg="http://www.w3.org/2000/svg"
   xmlns="http://www.w3.org/2000/svg"
   xmlns:sodipodi="http://sodipodi.sourceforge.net/DTD/sodipodi-0.dtd"
   xmlns:inkscape="http://www.inkscape.org/namespaces/inkscape"
   width="58.240891mm"
   height="14.025842mm"
   viewBox="0 0 206.36536 49.697864"
   id="svg4981"
   version="1.1"
   inkscape:version="0.91 r13725"
   sodipodi:docname="BNP Paribas 2007.svg">
  <defs
     id="defs4983" />
  <sodipodi:namedview
     id="base"
     pagecolor="#ffffff"
     bordercolor="#666666"
     borderopacity="1.0"
     inkscape:pageopacity="0.0"
     inkscape:pageshadow="2"
     inkscape:zoom="2.8"
     inkscape:cx="101.87911"
     inkscape:cy="54.735967"
     inkscape:document-units="px"
     inkscape:current-layer="layer1"
     showgrid="false"
     fit-margin-left="1"
     fit-margin-bottom="1"
     fit-margin-top="1"
     fit-margin-right="1"
     inkscape:window-width="1920"
     inkscape:window-height="1017"
     inkscape:window-x="-8"
     inkscape:window-y="-8"
     inkscape:window-maximized="1" />
  <metadata
     id="metadata4986">
    <rdf:RDF>
      <cc:Work
         rdf:about="">
        <dc:format>image/svg+xml</dc:format>
        <dc:type
           rdf:resource="http://purl.org/dc/dcmitype/StillImage" />
        <dc:title></dc:title>
      </cc:Work>
    </rdf:RDF>
  </metadata>
  <g
     inkscape:label="Calque 1"
     inkscape:groupmode="layer"
     id="layer1"
     transform="translate(-288.24589,-876.0847)">
    <g
       transform="translate(534.3957,209.88977)"
       id="g4944"
       style="fill:#010000;fill-opacity:1">
      <path
         inkscape:connector-curvature="0"
         id="path3598"
         style="fill:#010000;fill-opacity:1;fill-rule:nonzero;stroke:none"
         d="m -186.52525,699.16199 c 2.79625,0.01 3.83625,0.5875 3.83625,2.11375 0,0.40875 -0.1275,0.76375 -0.375,1.065 -0.53625,0.63875 -1.6,0.96875 -2.92375,0.90375 l -0.0662,0 -0.76875,2.0225 0.77875,0 c 1.54125,-0.0437 2.87875,0.43875 3.56375,1.2775 0.32125,0.38875 0.4775,0.82875 0.4775,1.305 0,1.6025 -1.39875,2.42 -4.155,2.42 -0.4625,0 -1.21125,-0.003 -1.68875,-0.0312 -0.0987,-2.10875 -0.10625,-4.97875 -0.10625,-5.8275 0,-1.00625 0.0425,-3.2425 0.1125,-5.15625 0.30625,-0.0538 0.83375,-0.0963 1.315,-0.0925 m -5.1725,-1.46375 c 0.1125,1.5175 0.1925,5.3175 0.1925,6.7125 0,1.2725 -0.015,5.55 -0.2125,7.40125 l -0.0188,0.15 6.6975,0.004 c 3.26875,0 6.76,-1.03625 6.76,-3.95375 0,-1.83 -1.32375,-3.17625 -3.8,-3.9225 1.81375,-0.4825 3.05375,-1.74375 3.05375,-3.19625 0,-2.375 -2.7375,-3.2775 -5.295,-3.33125 0,0 -7.39,-0.009 -7.39,-0.009" />
      <path
         inkscape:connector-curvature="0"
         id="path3600"
         style="fill:#010000;fill-opacity:1;fill-rule:nonzero;stroke:none"
         d="m -162.84525,697.55324 -3.2475,0 0.13875,3.6225 c 0.0575,1.81 0.115,3.65125 0.23625,5.43875 -0.2225,-0.5475 -0.40125,-0.8475 -1.37375,-2.28 -0.0312,-0.0512 -3.40625,-5.26625 -4.58,-6.74 l -0.0325,-0.0412 -3.78875,0 0.0125,0.14 c 0.11,1.5175 0.18875,5.31375 0.18875,6.715 0,1.27 -0.0125,5.5525 -0.21,7.40125 l -0.015,0.14625 3.35875,0 0,-0.13625 c -0.1975,-3.53 -0.1975,-7.075 -0.1975,-10.5025 l 0,-0.009 c 0.11375,0.41125 0.275,0.7875 0.805,1.5725 0.0563,0.0888 5.83125,8.52375 6.12375,9.0225 l 0.0312,0.0525 2.70375,0 -0.0163,-0.14625 c -0.1975,-1.8525 -0.2125,-6.13125 -0.2125,-7.40125 0,-1.40125 0.08,-5.20375 0.18875,-6.715 l 0.0125,-0.14" />
      <path
         inkscape:connector-curvature="0"
         id="path3602"
         style="fill:#010000;fill-opacity:1;fill-rule:nonzero;stroke:none"
         d="m -154.024,699.28574 c 1.87375,-0.0338 3.19625,0.35375 3.83,1.13375 0.28625,0.35875 0.4325,0.7975 0.4325,1.31 0,2.08625 -2.335,2.525 -4.29375,2.525 l -0.79375,-0.0275 c 0,0 -0.195,-0.0275 -0.3175,-0.0438 -0.0125,-0.48 -0.0175,-1.105 -0.0175,-1.82125 0,-0.91875 0.0125,-1.975 0.0462,-2.98 0.24625,-0.0462 0.6825,-0.0862 1.11375,-0.0962 m -4.91,-1.595 c 0.11125,1.5225 0.18875,5.3175 0.18875,6.7175 0,1.27125 -0.0137,5.54875 -0.2125,7.39875 l -0.0125,0.14625 4.00875,0 -0.0175,-0.14625 c -0.13625,-1.31875 -0.1875,-3.85125 -0.205,-5.80125 0.1675,0.009 0.735,0.0375 0.735,0.0375 l 0.56375,0.0263 c 5.28375,0 7.85,-1.415 7.85,-4.34 0,-3.33375 -3.6,-4.11 -6.61375,-4.1775 l -6.29375,-0.004" />
      <path
         inkscape:connector-curvature="0"
         id="path3604"
         style="fill:#010000;fill-opacity:1;fill-rule:nonzero;stroke:none"
         d="m -133.464,699.28574 c 1.87125,-0.0338 3.195,0.35375 3.82875,1.13375 0.28375,0.35875 0.43,0.7975 0.43,1.31 0,2.08625 -2.33125,2.525 -4.295,2.525 l -0.79375,-0.0275 c 0,0 -0.195,-0.0275 -0.31375,-0.0438 -0.0137,-0.48 -0.0237,-1.1125 -0.0237,-1.83 0,-0.91875 0.0162,-1.96625 0.0512,-2.97125 0.245,-0.0462 0.68375,-0.0862 1.11625,-0.0962 m -4.915,-1.595 c 0.1125,1.5225 0.1925,5.3175 0.1925,6.7175 0,1.27125 -0.0163,5.54875 -0.215,7.39875 l -0.0137,0.14625 4.01,0 -0.0188,-0.14625 c -0.135,-1.31875 -0.18625,-3.85125 -0.2025,-5.80125 0.165,0.009 0.7325,0.0375 0.7325,0.0375 l 0.56625,0.0263 c 5.27875,0 7.85,-1.415 7.85,-4.34 0,-3.33375 -3.59875,-4.11 -6.61625,-4.1775 l -6.29,-0.004" />
      <path
         inkscape:connector-curvature="0"
         id="path3606"
         style="fill:#010000;fill-opacity:1;fill-rule:nonzero;stroke:none"
         d="m -119.1315,701.80074 c 0.32,0.67875 1.14125,2.61 2.07125,4.88125 -0.14,0.004 -0.30875,0.007 -0.30875,0.007 l -1.7625,0.0288 c 0,0 -1.825,-0.0325 -2.11125,-0.0412 0.74625,-1.83 1.47875,-3.4775 2.11125,-4.87625 m -0.975,-4.23875 -0.0675,0 -0.0287,0.0762 c -0.74625,2.0475 -5.54125,12.52375 -6.29,14.13 l -0.0937,0.19625 3.4425,0 0.0213,-0.0825 c 0.29875,-0.9825 0.6825,-2.0975 1.13625,-3.305 0.1275,-0.003 2.83875,-0.0425 2.83875,-0.0425 l 2.34375,0.0287 c 0,0 0.4125,0.0113 0.5125,0.0113 0.6225,1.55375 1.07875,2.73 1.2825,3.31 l 0.025,0.08 3.98125,0 -6.415,-14.4025 -0.0613,0" />
      <path
         inkscape:connector-curvature="0"
         id="path3608"
         style="fill:#010000;fill-opacity:1;fill-rule:nonzero;stroke:none"
         d="m -109.414,697.69324 c 0.10625,1.5175 0.19,5.315 0.19,6.71625 0,1.26875 -0.0138,5.54875 -0.2175,7.3975 l -0.015,0.15 4.01,0 -0.0138,-0.1475 c -0.20125,-1.855 -0.215,-6.13125 -0.215,-7.4 0,-1.005 0.0438,-3.2475 0.11625,-5.03375 0.33,-0.0412 0.77875,-0.08 1.0825,-0.0862 1.87375,-0.035 3.1975,0.3575 3.82875,1.135 0.28625,0.35375 0.43625,0.79375 0.43625,1.305 0,1.6625 -1.565,2.5025 -3.0175,2.58 -0.48125,0.025 -0.85125,-0.0412 -0.8525,-0.0412 l -0.275,-0.0488 0.17625,0.26125 c 1.40375,2.07875 3.54,5.69875 4.43875,7.4225 l 0.03375,0.0625 4.29375,0 -0.1275,-0.2175 c -0.15,-0.22875 -2.9625,-4.35875 -4.15875,-6.12 0,0 -0.04125,-0.06 -0.075,-0.11 2.18375,-0.66125 3.2575,-1.89875 3.2575,-3.78875 0,-3.3325 -3.60125,-4.1075 -6.61875,-4.17125 l -6.29125,-0.005" />
      <path
         inkscape:connector-curvature="0"
         id="path3610"
         style="fill:#010000;fill-opacity:1;fill-rule:nonzero;stroke:none"
         d="m -89.71775,697.54574 -3.84375,0 0.015,0.14125 c 0.10875,1.5225 0.19,5.32125 0.19,6.71625 0,1.26875 -0.0175,5.545 -0.2125,7.3975 l -0.01625,0.15 4.005,0 -0.01625,-0.15 c -0.195,-1.8525 -0.2125,-6.12875 -0.2125,-7.3975 0,-1.39625 0.08375,-5.1975 0.1925,-6.71625 l 0.0125,-0.14125" />
      <path
         inkscape:connector-curvature="0"
         id="path3612"
         style="fill:#010000;fill-opacity:1;fill-rule:nonzero;stroke:none"
         d="m -80.794,699.16199 c 2.79375,0.01 3.83625,0.5875 3.83625,2.11375 0,0.40875 -0.13,0.76375 -0.38,1.065 -0.52625,0.63875 -1.595,0.96875 -2.91875,0.90375 l -0.06875,0 -0.76875,2.0225 0.78375,0 c 1.5425,-0.0437 2.87,0.43875 3.55875,1.2775 0.31625,0.38875 0.47625,0.82875 0.47625,1.305 0,1.6025 -1.395,2.42 -4.14875,2.42 -0.46875,0 -1.22,-0.003 -1.6975,-0.0312 -0.0975,-2.10875 -0.1,-4.97875 -0.1,-5.8275 0,-1.0075 0.0425,-3.24875 0.1125,-5.15625 0.3025,-0.0538 0.83125,-0.0963 1.315,-0.0925 m -5.17375,-1.46375 c 0.11,1.515 0.18875,5.3175 0.18875,6.7125 0,1.2725 -0.0125,5.55 -0.2125,7.40125 l -0.01375,0.15 6.69375,0.004 c 3.27,0 6.76125,-1.03625 6.76125,-3.95375 0,-1.83 -1.32125,-3.17625 -3.80375,-3.9225 1.82125,-0.4825 3.0575,-1.74375 3.0575,-3.19625 0,-2.375 -2.73125,-3.2775 -5.29375,-3.33125 0,0 -7.38875,-0.009 -7.38875,-0.009" />
      <path
         inkscape:connector-curvature="0"
         id="path3614"
         style="fill:#010000;fill-opacity:1;fill-rule:nonzero;stroke:none"
         d="m -64.34525,701.78574 c 0.3225,0.67875 1.1375,2.6075 2.07,4.8775 -0.14125,0.003 -0.30375,0.0138 -0.30375,0.0138 l -1.76875,0.0275 c 0,0 -1.8175,-0.0387 -2.10625,-0.0412 0.74,-1.8275 1.475,-3.475 2.10875,-4.8775 m 1.655,-4.24 -2.69875,0 -0.0275,0.075 c -0.79,2.17875 -5.87,13.22375 -6.29125,14.13375 l -0.0925,0.19625 3.4425,0 0.0225,-0.0862 c 0.2975,-0.98 0.6825,-2.09 1.1375,-3.30375 0.12125,-0.003 2.83625,-0.0425 2.83625,-0.0425 l 2.34625,0.0325 c 0,0 0.40875,0.007 0.51375,0.01 0.62125,1.55 1.0775,2.725 1.2775,3.31125 l 0.0275,0.0788 3.97875,0 -6.41,-14.405" />
      <path
         inkscape:connector-curvature="0"
         id="path3616"
         style="fill:#010000;fill-opacity:1;fill-rule:nonzero;stroke:none"
         d="m -55.0965,701.28074 c 0,2.535 2.54875,3.56 4.79625,4.47125 1.7475,0.705 3.55125,1.43875 3.55125,2.64375 0,0.36875 -0.0875,0.65875 -0.28125,0.88625 -0.4125,0.495 -1.27375,0.705 -2.62875,0.63875 -1.31875,-0.0638 -2.835,-0.4925 -4.51,-1.26875 l -0.70375,-0.325 0,0.55625 0,2.58875 0.4575,0.10125 0.2775,0.0575 c 0.84375,0.20125 2.4425,0.58125 4.06,0.58125 4.225,0 6.75,-1.67375 6.75,-4.4725 0,-2.595 -2.60375,-3.63375 -4.9025,-4.55125 -1.7,-0.67375 -3.4525,-1.37375 -3.4525,-2.4775 0,-0.32375 0,-1.29 2.1725,-1.29 1.62625,0 3.2175,0.66 4.07625,1.01625 l 0.82625,0.33875 -0.0125,-0.5425 0,-2.61625 -0.81625,-0.1475 c -0.81625,-0.1575 -2.17875,-0.42 -3.59375,-0.42 -3.635,0 -6.07375,1.70125 -6.07375,4.23125" />
    </g>
    <g
       transform="translate(534.3957,209.88977)"
       id="g4937">
      <path
         inkscape:connector-curvature="0"
         id="path3624"
         style="fill:#00a76d;fill-opacity:1;fill-rule:nonzero;stroke:none"
         d="m -242.6065,712.34949 42.61125,0 0,-42.61125 -42.61125,0 0,42.61125 z" />
      <path
         inkscape:connector-curvature="0"
         id="path3626"
         style="fill:#ffffff;fill-opacity:1;fill-rule:nonzero;stroke:none"
         d="m -209.3465,680.94699 c -2.64125,1.545 -3.45,1.67 -6.3,3.38125 1.65875,-1.80375 2.23375,-2.56625 3.27,-4.08125 -2.63875,0.13875 -6.46875,0.4575 -9.2125,1.06 2.38875,-1.26375 7.115,-2.68875 9.6025,-3.01875 -0.5775,-0.79875 -5.25375,-3.33375 -6.41875,-3.81625 3.7025,0.2875 8.22875,1.66 10.4175,3.0125 0.8825,-0.26875 1.76625,-0.2875 3.365,-0.43 -0.40625,0.70375 -0.41375,1.11125 -1.99375,2.15125 0.4375,1.16875 -0.60125,7.59 -1.46125,9.30125 -0.0362,-2.69375 -0.27625,-6.09 -1.26875,-7.56" />
      <path
         inkscape:connector-curvature="0"
         id="path3628"
         style="fill:#ffffff;fill-opacity:1;fill-rule:nonzero;stroke:none"
         d="m -228.6115,703.98699 c -1.51875,-0.5625 -2.60875,-1.215 -3.805,-2.33625 0.35875,-0.9825 0.7675,-1.76625 1.44,-2.7475 -1.23625,0.175 -2.13,0.31 -3.1925,0.5175 -0.8675,-1.51375 -1.25125,-2.96125 -1.695,-4.98125 -0.23875,2.13875 -0.3225,3.66875 -0.015,5.3775 -0.97375,0.265 -1.6625,0.505 -2.46125,0.86125 1.1175,0.69125 2.02125,1.2225 3.28,1.8 0.66875,1.44 1.365,2.42125 2.4875,3.525 -0.26375,-0.94125 -0.32875,-1.69625 -0.22875,-2.6875 1.4025,0.41125 2.6,0.62 4.19,0.67125" />
      <path
         inkscape:connector-curvature="0"
         id="path3630"
         style="fill:#ffffff;fill-opacity:1;fill-rule:nonzero;stroke:none"
         d="m -224.674,682.62574 c -0.47875,0.60625 -1.0275,1.745 -1.1675,2.2775 3.89,0.535 7.02125,2.52875 7.025,2.52875 -3.42375,-0.6 -5.21,-0.5275 -6.47875,-0.41375 -1.27,0.1225 -1.52375,0.275 -1.52375,0.275 -0.91875,1.9975 -1.4675,5.465 -1.4675,5.465 -0.62,-1.49 -1.51625,-4.48625 -1.51625,-4.48625 -1.72,0.9225 -5.67,4.6375 -5.67,4.6375 l -0.001,0 c 2.17,-4.35 4.3725,-6.345 4.37625,-6.345 -0.76,-0.7575 -2.7475,-1.13625 -4.19625,-1.20375 0.75375,-0.31 2.6925,-0.67375 4.17875,-0.73875 1.48625,-0.0462 2.3875,0.0475 2.38875,0.0475 1.33125,-1.055 3.345,-1.93875 4.0525,-2.04375" />
      <path
         inkscape:connector-curvature="0"
         id="path3632"
         style="fill:#ffffff;fill-opacity:1;fill-rule:nonzero;stroke:none"
         d="m -220.549,701.29074 c -0.6925,0.93 -1.27625,1.665 -2.04375,2.52125 -1.30875,0.3575 -2.35375,0.49125 -3.63,0.49625 0.7825,0.40375 1.545,0.6525 2.35875,0.81625 -0.81375,0.74375 -1.51375,1.2725 -2.3025,1.7775 1.32875,-0.3175 3.09,-0.88875 4.39,-1.6525 0.675,0.0225 1.31375,-0.0188 1.7775,-0.105 -0.1075,-0.4025 -0.19,-0.69625 -0.29625,-1.21125 1.2325,-0.95375 2.12875,-1.81 3.14,-2.84375 -1.08375,0.75625 -2.02375,1.325 -3.2675,1.91625 -0.0588,-0.58 -0.0987,-1.065 -0.12625,-1.715" />
    </g>
  </g>
</svg>
